<svg viewBox="0 0 24 24" xmlns="http://www.w3.org/2000/svg">
  <path fill="gray" d="M62.494 43.298l-12.499 7.216v14.432l-12.498 7.217v14.432l12.498 7.216v14.433l12.5 7.216 12.498-7.216 12.5 7.216 12.498-7.216V93.811l12.5-7.216V72.163l-12.5-7.217V50.514l-12.499-7.216-12.499 7.216zm12.5 21.648l12.498 7.217v14.432l-12.499 7.216-12.499-7.216V72.163z"/>
  <path fill="#ccc" d="M62.494 0L49.996 7.216V21.65l-12.5 7.216-12.498-7.216-12.499 7.216v14.433L0 50.514v14.432l12.499 7.217v14.432L0 93.811v14.433l12.499 7.216v14.433l12.499 7.216 12.499-7.216 12.498 7.216v14.433l12.5 7.216 12.498-7.216 12.5 7.216 12.498-7.216v-14.433l12.5-7.216 12.498 7.216 12.5-7.216V115.46l12.498-7.216V93.811l-12.499-7.216V72.163l12.5-7.217V50.514l-12.5-7.216V28.865l-12.499-7.216-12.499 7.216-12.499-7.216V7.216L87.492 0 74.993 7.216zm12.5 21.649l12.498 7.216v14.433l12.5 7.216 12.498-7.216 12.5 7.216v14.432l-12.5 7.217v14.432l12.5 7.216v14.433l-12.5 7.216-12.499-7.216-12.499 7.216v14.433l-12.499 7.216-12.499-7.216V115.46l-12.499-7.216-12.498 7.216-12.499-7.216V93.811l12.499-7.216V72.163l-12.499-7.217V50.514l12.499-7.216 12.498 7.216 12.5-7.216V28.865z"/>
</svg>
