<svg viewBox="0 0 24 24" xmlns="http://www.w3.org/2000/svg">
  <path d=" path('M 17 13.6 L 17.4 13.6 C 19.0407 13.6 20.4968 12.8098 21.4085 11.5892 L 21.8199 18.8298 C 21.9139 20.484 20.6491 21.9012 18.9949 21.9952 C 18.9382 21.9984 18.8815 22 18.8247 22 L 5.17529 22 C 3.51844 22 2.17529 20.6569 2.17529 19 C 2.17529 18.9432 2.1769 18.8865 2.18012 18.8298 L 2.59152 11.5892 C 3.50322 12.8098 4.95933 13.6 6.6 13.6 L 7 13.6 L 7 15 L 9 15 L 9 13.6 L 15 13.6 L 15 15 L 17 15 L 17 13.6 Z M 7 16 L 7 18 L 9 18 L 9 16 L 7 16 Z M 15 16 L 17 16 L 17 18 L 15 18 L 15 16 Z M 15 11.6 L 9 11.6 L 9 9 L 7 9 L 7 11.6 L 6.6 11.6 C 4.94315 11.6 3.6 10.2569 3.6 8.6 L 3.6 5 C 3.6 3.34315 4.94315 2 6.6 2 L 17.4 2 C 19.0569 2 20.4 3.34315 20.4 5 L 20.4 8.6 C 20.4 10.2569 19.0569 11.6 17.4 11.6 L 17 11.6 L 17 9 L 15 9 L 15 11.6 Z');"/>
</svg>
