<svg xmlns="http://www.w3.org/2000/svg" viewBox="0 0 98.12331 49.05266">
  <path fill="#fff" d="M85.07976 40.60068c-.87857-.32607-3.93768-2.6568-3.85624-2.93807.04885-.16885.96358-1.09901 2.03264-2.067 2.02523-1.83378 4.01505-4.46444 3.5701-4.7199-.14165-.08138-.99083.52067-1.88707 1.33775-5.4736 4.99014-13.54501 8.6018-20.84566 9.32766-3.08792.30702-7.74417.07487-10.85761-.54134-1.13566-.22477-2.12935-.29086-2.20822-.14688-.26895.49112 2.92663 1.72703 5.83072 2.25509 2.04435.37172 2.86212.66274 2.776.98787-.4511 1.70272-1.59635 3.99456-2.16453 4.33158-1.13626.674-5.8142.84257-8.62111.3107-1.75864-.33324-3.53011-.98943-5.30309-1.96437l-2.66233-1.46395-.51165-1.8453c-1.19407-4.30795-1.9769-11.59956-1.85961-17.31966.07892-3.84588.67631-9.94222 1.12973-11.52814.70714-2.4733 6.6497-7.49978 10.61077-8.97503 1.69418-.63098 2.06106-.68041 2.16932-.2919.0815.29252-.52056.93145-1.60834 1.70683-2.85606 2.03581-6.83107 5.86332-5.834 5.61752.18177-.04435 1.34827-.81077 2.59248-1.7022 4.0221-2.88165 7.6901-4.60205 12.89958-6.0503 5.41544-1.50518 9.21182-1.95796 14.19935-1.69237 1.86148.09913 3.68906.19621 4.06127.21574.5662.0297.51966-.0402-.28498-.42805-1.27291-.61355-4.59877-1.26292-7.74468-1.51213-3.28435-.2602-3.74398-.78196-1.11362-1.2642 4.16253-.76312 11.53251.38308 13.57578 2.11134 1.20402 1.0184 4.82074 5.81122 7.07733 9.37878 3.05843 4.8352 6.15905 11.48098 7.3649 15.78564l.51633 1.844-1.52164 2.62979c-1.0153 1.7547-2.18675 3.22476-3.5204 4.41776-2.66505 2.38399-6.89858 4.6023-8.00184 4.19284zM79.6667 28.05142c3.41384-4.29017-1.03939-10.9335-5.98858-8.9338-1.69971.68676-2.55672 1.77054-2.9572 3.73967-1.1479 5.64419 5.51106 9.51053 8.94578 5.19413zm-18.20643 5.41352c1.48281-1.58703 1.77495-3.06962 1.08954-5.52945-.53558-1.92212-.755-2.29938-1.79375-3.08491-2.11878-1.60218-4.49775-1.55787-6.43064.11975-3.17995 2.75998-1.41712 9.08648 2.73189 9.8043 1.61902.28013 3.41733-.2548 4.40297-1.30964zM28.3687 43.57923c-.5351-.19859-2.39821-1.6181-2.34861-1.7894.02975-.10284.58686-.66934 1.23796-1.25889 1.23345-1.11685 2.44533-2.71903 2.17433-2.8746-.08626-.04958-.60345.3171-1.1493.81473-3.33364 3.0392-8.24947 5.23885-12.69586 5.68093-1.88067.18699-4.71652.0456-6.61273-.3297-.69166-.1369-1.29686-.17715-1.3449-.08945-.1638.2991 1.78244 1.05183 3.55115 1.37343 1.2451.2264 1.74315.40365 1.6907.60166-.27474 1.03702-.97224 2.43285-1.31829 2.63811-.69203.4105-3.54109.51316-5.2506.18923-1.07109-.20296-2.14999-.6026-3.2298-1.19638l-1.62147-.89161-.31162-1.12387c-.72724-2.62371-1.204-7.0646-1.13258-10.54837.04807-2.3423.4119-6.05522.68805-7.02112.43068-1.50634 4.04994-4.56767 6.4624-5.46616 1.03182-.3843 1.25527-.4144 1.3212-.17777.04964.17815-.31704.56728-.97954 1.03953-1.73946 1.23989-4.1604 3.571-3.55315 3.4213.11071-.02702.82115-.4938 1.57893-1.03671 2.44962-1.75505 4.68359-2.80284 7.85637-3.68488 3.29823-.91672 5.61038-1.19248 8.64799-1.03073 1.13372.06037 2.24679.1195 2.47348.1314.34484.01809.3165-.0245-.17356-.2607-.77526-.37368-2.80085-.76917-4.71683-.92096-2.0003-.15846-2.28024-.47624-.67824-.76994 2.53515-.46477 7.02377.2333 8.2682 1.28589.7333.62024 2.93603 3.53927 4.31039 5.71206 1.8627 2.94484 3.75111 6.99239 4.48552 9.6141l.31447 1.12308-.92674 1.60164c-.61836 1.06869-1.33182 1.96402-2.14407 2.6906-1.62312 1.45195-4.20152 2.803-4.87345 2.55361zm-3.29678-7.64301c2.07917-2.61289-.63303-6.65896-3.6473-5.44106-1.03518.41827-1.55714 1.07834-1.80105 2.27762-.69911 3.43754 3.35646 5.7923 5.44835 3.16344zm-11.08846 3.29706c.9031-.96657 1.08102-1.86953.66357-3.36767-.32619-1.17065-.45982-1.40041-1.09246-1.87883-1.29043-.9758-2.73932-.94881-3.91653.07293-1.93672 1.68094-.86308 5.53404 1.66384 5.97122.98605.1706 2.08129-.15518 2.68158-.79763z"/>
</svg>
