<svg viewBox="0 0 80 10" xmlns="http://www.w3.org/2000/svg">
  <path d="M2.8163043 7.6856437c.148775.26597.07878.47904.627351.47904.225041-.79474 2.75591-6.8602805 3.200831-6.9175305 1.1577952.31023 2.0933272 2.02476 1.0919222 3.02617-.8221452.82215-1.8591082.65956-2.7341992 1.16479 0 .70649 1.263137.75224 1.907376 1.8681005.6198162 1.07355-1.594078 2.10952-2.992583 1.9234-1.631188-.33693-3.0045839-2.45876-3.587377-2.45876-1.348827.36142 1.741866 3.58665 3.852479 3.48919 1.635458 0 2.980028-.73933 3.6204502-1.74615 0 1.91418 1.323222 2.32031 2.290298.92088.366586 1.36811 1.924225 1.04912 2.500106.0517.78821 1.2524 1.705875.70942 2.474787.001 1.039352 1.21866 3.355916.84191 4.06745-.1602.563623.15103.298519.60711 1.370975 1.22629.345835.34583 3.202319.80152 4.093808-.74259.171379.6396.442743.75335.917774.83405.808241-.80823 1.679233-4.07726 2.468583-4.07726.47475.82228-.684712 1.65975-.684712 2.72179.102222 1.48487 1.766242.97327 2.473751-.0765.63704 1.5277 1.790546 1.28208 2.655133.0775.818497 1.44724 1.927196.76242 2.509925-.0941.8812 1.81098 1.995006 1.39189 2.909901-.19275 1.607973 1.9148 1.633032 1.30789 2.487186.19224 1.325134 2.2952 3.094532-.22535 3.619418-1.34514.132292-.0174.261371-.0498.39584-.0858 0 1.77371.352632 3.92586 2.335261 1.65002.0712.27764.0887.74018.29404.90693 1.52111.48908 2.5178-1.39072 3.18585-2.21227.80327 0 2.12729-.11402 2.71094.0424 0 .99764-1.62983 2.21281-.61546 2.48461 2.31541.62041 3.72462-7.0928005 6.96391-7.9607605.35134.60854-4.1787 8.0661805-1.13688 8.0661805 1.54705 0-.19239-1.163399.97617-3.1874.97764-1.6933205 2.33899-3.9366105 4.0013-4.8963505 2.3201-1.33951-.16929 2.95132-1.87792 5.9107505-.45495 1.69789-.40645 2.7216.78541 3.04096.45993-.12324-.66427-3.19796 1.21784-3.19796.58465.33755-1.16697 1.45938.60298 1.93364 2.13026.5708 1.62108-.56976 2.70818-1.19739.19511.72815.54131 1.75314 1.54874 1.1715-1.16103-2.01097-.31084-2.42385.73163-3.46632.47896-.4789605.69565-.3834405 1.28893.20984-.0928.5796-.83082 2.15503-.36434 2.62152 1.08569 1.08569 1.63723.70818 2.19677-.26097.27391 1.34992 2.01182 1.54595 2.66753 1.16737.48878-.28219 1.30544-.894 1.4067-.81565.20544.15895-.5897 1.35088.681029 1.09885 1.16023 0 1.59197-4.5554205 2.42621-3.72119.46993.46993-.94346 1.25235.38293 1.60776.8004.21446 1.04916-2.2449005-.17518-2.5729605-1.08519-.29078-1.75511.4898505-1.88412.9713505 0-.6578105.80293-1.1753605.25335-1.1753605-1.369119-.79047-1.30135.49995-1.30135 1.3133405 0 2.05489-3.387409 3.70531-3.605469 1.27124.80141 0 2.52037-.12162 2.98653-.39076.4255-.4255-.39557-1.8209105-1.27188-1.8209105-.91044-.24395-1.85951.0641-2.13042.2204705-.69252.39983-.4951.97685-.4951 1.35278.12439.46425-.21653 1.39562-.81719 1.61097-.61133.0322-.40282-.68433-.31937-1.06247.31723-1.51756 1.76219-4.3732005 1.90324-4.6493305 1.265-.73034 9.320949-.60919 10.032969.10283 1.30361 1.30361 1.45808-1.9468 3.44785-2.47996 1.71316.45904.88754 2.30972-.20929 2.94298-1.65723.9568-5.49763 4.5045305-5.2505 5.4268405 1.2484 1.2484 4.24542.71916 5.91402-.244209 0-1.807321-3.63798.457129-4.5616-.306991 1.23468-1.8303 4.58708-2.9544305 5.67988-4.8472205.47482-.82242.70917-1.76763.46458-2.68046.73349.19654 1.61707-.22471 2.15439-.42272-1.40876 2.9304-3.34023 5.8964905-3.49901 9.0144405.36691.35043.73971.59105 1.01493.1204.36274-1.44541 2.27251-7.0873705 2.8329-7.1453005-.0964.24098.0114.48249.11678.7059 1.40616.51552 1.77534-1.4243 2.43396-2.0345 2.48832-.68322 1.90634 1.13482.5147 2.52646-.84456.2263-1.403-.10362-1.403.93922.2273.84832 2.15892-.33551 2.15892 1.1855005 0 1.2061-1.71969 2.68419-3.07744 2.32039-1.28019-.34303-.60104-1.55272-1.49849-1.55272-2.21358 1.69599 1.93496 3.4339 3.11207 2.75429 2.2192-1.01809 3.35777-3.8113605 2.37764-5.4399805.48943-.87597 1.06366-1.66968.79892-2.65772 0-1.5805199-2.82911-2.1079499-4.29018-.68729-.7696-1.7145599-3.47835-1.0588299-4.17702-.3601599-1.6745-1.25755-3.48758-.41602-4.89583 2.0231399-.85698-.22963-6.646769-.84187-9.546189-.3266.62584-1.22122.74047-1.8250999-.24339-2.3931299-.60349-.34843-.28248 1.3128999-1.31568 2.3461099-1.19356.31981-3.43408.128-4.07169-.24013-.26846.155-.42376.52002-.42376.81185-.13278.49555 3.68731-.041 4.00523.50963 0 1.18747-.85975 2.78782-2.55894 1.8068-.65106.65106-.75352 1.2976805-1.14262 1.5223305-.61726-.6172605.74012-1.7464105-.63012-2.1135705-.54706-.21948-.13999 2.1790905-.37777 3.0664805-.62845.36284-1.24484 1.08103-1.83089 1.43144-1.15315.30899.53178-1.85235.65577-2.3151.24695-.42773.80639-1.4286505.80639-2.0169605 0-.42728-.31854-.78711-.70366-.79242-.3891-.10426-.95529.60375-.39897.92494.84363.48707 1.02465-.81202.74335.23779-.0559.1824-1.20722.0986-1.23621.0896-.11669-.033-.35176 1.9604805-1.09741 2.1602805-1.13929.30528.88325-3.5718805 1.21987-4.1813705.74897-1.29725 1.57003-2.8286999-.50178-2.7527999-2.34923.6486799-3.61749 3.1761199-5.10614 4.9521499.15289-1.58226 2.84148-3.74587.50178-4.0628-1.56925 0-2.88329 1.63524-3.71296 2.44533-.5002-.13403.36168-.8909.49713-1.21181.59445-1.02963.72534-1.8480999-.29817-2.1223499-2.48238-.87449-6.29721.5138799-8.31371-.74569-1.10939 1.1498099 1.4277 2.2908099 3.24632 2.2908099v.00053c1.76284 0 4.32483-1.9391399 4.73046-.4253-.95927 1.86895-1.64603 3.97817-2.67529 5.7608905-1.03853-.27827-1.72275-.19068-2.52543-.19068-.75556-.20245 1.51655-2.1554305.20722-2.1554305-1.52041-.40739-2.16851 4.2235215-2.72903 4.2235215-.70054-1.213371.85318-3.0595515.85318-4.1403215-.2616-.4531-.97048-.56186-.97048-.0599-.32263 1.2040505-1.44364 3.8680505-2.31511 4.1015605-.44768-1.046.48445-2.27404.75861-3.1553705.17948-.66982-.20285-.98503-1.00459-1.26452-.45555 1.7001305-.659002 2.3011605-1.092956 2.1848805.238281-.8892805.620906-1.8655205-1.409732-1.8655205-1.737206 0-3.149787 4.1887915-3.890719 3.7610105-.0919-2.5729605 2.25697-5.2317105 3.62045-7.5933305-3.043827-.8155899-2.060972 2.47955-4.076753 4.49533-2.780395-1.62431-3.09218 2.8598705-4.761984 3.3072905-.923419-1.59942.859896-2.15854.859896-3.5506905-.605324-.1622-.959255-.18459-1.215945.2589-1.624209-1.87031-3.192275 2.3005005-4.571815 3.1667305-1.195962-1.19597.776216-1.78991.417547-3.1284905-2.27675-1.31448-2.645371 1.3209805-2.990517 1.9234005-.639368-1.5575805 5.607653-7.6361804 2.652035-7.8403504-1.933855 1.9338599-3.277777 5.5657299-4.052464 8.3741704-.385635-1.37664-1.63146-4.1439805-1.856735-4.9847105-.316994-1.18303.642864-2.6241799 1.761133-2.21847 1.133364.91039.347255 2.01771-.299722 3.13831.617913 3.2889805 2.363679-1.34544 2.363679-2.12339 0-1.6406699-1.403869-2.5948099-3.002402-2.2194999-2.592173.69457-2.629151 4.4453599-1.236099 5.8384099.728864 1.2624305 1.609839 2.7476705.617016 3.9191405-.772758.63944-2.317358.31975-2.603976-.54571-.124915-.96525.02352-1.69778.577744-2.65772-1.521809-.7503205-1.413372 1.34878-2.208651 2.14406-.792761.792761-2.60966 1.44954-2.60966.26872 2.120072 0 3.670279-3.5620605 1.39423-3.5620605-1.955065.0895-2.773998 4.9403205-3.89072 3.6442205.228894-1.3619 1.079186-2.229 1.092442-3.2985005-1.018499 0-1.477419.9637605-1.877408 1.6805105-.240154.89627-1.192739 2.29026-1.715656 1.76734.476639-1.77884 1.255715-3.0820905.247012-4.1584105-.593034 1.02718-1.462304 4.0937705-2.542479 4.3832015-.985442-2.754951 4.073615-7.3251315 2.52181-9.2449114-.798198.7982-1.541492 2.2332999-2.100646 3.2220199C9.6109825.7031533 7.0262243-.0653667 4.7681143.0042533c-.752703.0232-1.468792.1393-2.033985.30333-1.356992.44926-3.604937 2.5258699-1.9983259 3.2416699.6275999-1.08704 2.5422409-2.22769 4.4421659-2.3922699-.653849 2.1719599-2.422461 4.2449399-2.361665 6.5285704zm6.2859192-3.4581905c-.465269 1.04905-.657309 1.79642-1.075903 2.7807105-.171876-.6414605-.499319-.9924805-1.4200672-1.2392005.8800022 0 1.8208922-.84889 2.4959702-1.54151zm63.642425 3.5289505c0-.2747-.10223-.52377.47298-.6779 1.07023-.26612 1.31521-.28592 1.79172.53942-.51173.29545-1.49811.13848-2.2647.13848zm-29.465703-1.6903905c.662093-.0652.460602.8933205.161229 1.1926905-.576509-.33285-.62988-.8413505-.305409-1.1658205.05204-.0139.100039-.0225.14418-.0269zm-5.915403.33744c.216887.0186.434096.1753705.637172.5271005.25324.94511-1.666155 3.36453-2.209686 2.42311-.296744-.51397.632677-3.0307105 1.572514-2.9502105zm5.045688.002c-.0016.4948005.333992 1.1168805.847493 1.4133505-.28702.70278-.96111 2.22184-1.822628 1.724441-.967017-.967011-.207441-2.820321.975135-3.1377915zm-24.518918.0879c.569362.5693605-.898046 2.0853805-1.413867 1.9471705-.302107-.90696.661823-1.9507505 1.413867-1.9471705zm14.610995.076003c.987401.57009-.983914 3.55397-1.521354 2.6231-.572786-.57279.632976-2.6231 1.521354-2.6231z"/>
</svg>
