<svg xmlns="http://www.w3.org/2000/svg" width="210mm" height="297mm" viewBox="0 0 210 297">
  <path d="M57.97475579 111.05316952c.1487752.26596974.07878233.4790387.62735089.4790387.22504135-.79473424 2.75591055-6.86027533 3.20083123-6.91752587 1.15779548.31022924 2.09332774 2.02476097 1.09192217 3.02617184-.82214507.82215036-1.859108.65955597-2.73419884 1.16478842 0 .70648776 1.2631367.75224216 1.90737594 1.86810118.61981555 1.07354951-1.59407753 2.1095176-2.99258299 1.92339646-1.63118798-.33692835-3.00458448-2.45876495-3.58737689-2.45876495-1.3488273.36142083 1.74186583 3.58665458 3.8524788 3.48919266 1.63545836 0 2.98002851-.7393252 3.62044982-1.74614414 0 1.91417837 1.32322356 2.3203032 2.29029945.9208717.3665855 1.36811012 1.9242246 1.04912846 2.50010609.05167841.78820961 1.2523999 1.70587456.70941141 2.47478547.00105834 1.03935211 1.21866023 3.35591675.84190415 4.06745011-.16019727.56362335.15102152.2985188.60710232 1.37097557 1.22628288.34583422.34582893 3.20231819.8015208 4.0938079-.74259016.17137857.63959845.44274317.75334812.91777343.83405661.80824122-.80823857 1.67923367-4.0772688 2.46858364-4.0772688.4747498.82228795-.68471256 1.65975769-.68471256 2.72179782.10222177 1.4848681 1.7662419.97326714 2.47375095-.0764831.63703993 1.5277015 1.79054652 1.28207557 2.6551334.07751498.81849647 1.44723112 1.92719588.7624101 2.50992479-.09405144.88120007 1.81098029 1.99500593 1.39188823 2.90990069-.1927516 1.60797344 1.91480014 1.63303212 1.30788567 2.48718649.19223566 1.32513386 2.29519954 3.09453223-.22534827 3.61941793-1.34513636.13229167-.01740958.2613713-.049784.39584048-.0857832 0 1.77370843.35263137 3.92585834 2.33525745 1.65002631.07119937.27763258.0887095.74017187.29403939.90692286 1.52111867.48907964 2.51780142-1.39071877 3.18585052-2.21226853.80327234 0 2.1272976-.11401425 2.71094726.04237567 0 .99764054-1.62983596 2.21280299-.6154658 2.4846015 2.3154084.62041087 3.7246242-7.0927938 6.96391526-7.96075412.3513402.60854166-4.17870211 8.0661747-1.13688282 8.0661747 1.54705048 0-.19239177-1.16339142.97616961-3.18740097.97763805-1.69332009 2.33898543-3.93660308 4.00130429-4.89634207 2.32009153-1.33951131-.169291 2.95131857-1.87791988 5.91074926-.45495103 1.69788944-.40645555 2.72159938.78540239 3.04095411.45993579-.12324027-.66426555-3.1979605 1.21784003-3.1979605.58464978.33755276-1.16697124 1.45938608.6029854 1.93364377 2.13026094.57080149 1.62107561-.56975904 2.70817443-1.19739303.19510904.72815714.54131633 1.75314502 1.54874381 1.1715062-1.16103398-2.0109709-.31084572-2.42385319.73162583-3.46632473.47896197-.47896198.69565307-.38343417 1.28893356.20984633-.09279995.57959095-.8308234 2.15502857-.36433653 2.62151544 1.08568859 1.0856886 1.63722841.70817845 2.19676395-.26096647.2739099 1.34991208 2.0118202 1.54594981 2.66753707 1.16737075.48877537-.282194 1.30543298-.89400061 1.4066996-.81564955.20543573.15894579-.58970861 1.35087782.68102427 1.09884632 1.16023494 0 1.59197408-4.5554238 2.42620797-3.72118991.4699291.4699291-.94345653 1.25234698.3829341 1.60775383.80039632.21446596 1.04915492-2.2448996-.17518062-2.57295911-1.08518589-.29077443-1.75510823.48985751-1.88412436.9713542 0-.65780973.80293104-1.17536382.25335706-1.17536382-1.36912348-.79046387-1.30135575.49995401-1.30135575 1.31334138 0 2.05489437-3.3874101 3.70530962-3.6054691 1.27124088.80140968 0 2.52036788-.12161573 2.98653196-.39075519.42550291-.4255029-.39556795-1.8209154-1.27188382-1.8209154-.91043917-.24395111-1.85950487.06406357-2.13041703.22047465-.69252306.39982775-.49509891.97684695-.49509891 1.35278017h-.00000265c.1243965.46424585-.21652706 1.39561621-.81718678 1.61096588-.61133301.03219185-.40282547-.68433156-.31937325-1.06246876.31723013-1.51756002 1.76219377-4.37319732 1.90324315-4.64932707 1.26499671-.73034788 9.32094528-.60919782 10.03296547.10282238 1.30361265 1.30361265 1.4580817-1.9467962 3.44785152-2.47995278 1.71316648.4590415.88754743 2.30971457-.2092907 2.9429736-1.65723092.95680212-5.49762885 4.50453384-5.25049479 5.42684487 1.24839676 1.24839676 4.24541415.71915602 5.91402215-.2442157 0-1.80731317-3.63798903.4571365-4.56159917-.3069881 1.23467547-1.83029487 4.58707061-2.95442478 5.6798765-4.84721952.47482124-.8224176.70916534-1.76762831.46457393-2.68045668.73349907.19654044 1.6170698-.22471591 2.15439093-.4227195-1.40875807 2.93040326-3.34022696 5.89649087-3.49900606 9.01443608.36690564.35043533.73971149.59105006 1.01492578.12040658.3627411-1.44541344 2.2725115-7.08737778 2.83290165-7.14530036-.09640358.2409772.01143.48248622.11678708.70590038 1.40615192.51551416 1.77533827-1.42430233 2.43396026-2.03450822 2.48831097-.68321766 1.90633877 1.13481907.5146966 2.52646124-.84455793.22629812-1.40300603-.10362142-1.40300603.93922584.22730883.8483203 2.15892325-.33551018 2.15892325 1.18549736 0 1.20610046-1.71969375 2.68419259-3.0774375 2.32038522-1.2801891-.34302435-.60104602-1.55271786-1.49849415-1.55271786-2.21357293 1.69599238 1.93495874 3.43390269 3.1120741 2.75429395 2.21920062-1.01808755 3.35776619-3.81135727 2.37763841-5.43997879.48943418-.87597455 1.06366203-1.66967956.7989173-2.65771838 0-1.58052292-2.82910752-2.10795391-4.29017636-.68729753-.76959882-1.71455819-3.47835004-1.0588281-4.17702465-.36015348-1.67449763-1.25755398-3.48757607-.41602553-4.89582613 2.02313379-.85698011-.22962658-6.64677246-.84186447-9.54618507-.32659637.62583483-1.22121876.74046556-1.8251011-.24339814-2.39313505-.60348283-.34842185-.28247446 1.31290481-1.3156803 2.34611065-1.19355656.31981246-3.43407466.12800013-4.07168345-.2401226-.26846212.15499556-.42376195.52002002-.42376195.8118475-.13278114.49554605 3.68730473-.0410316 4.00522806.50962453 0 1.1874738-.8597503 2.78782723-2.55893885 1.80679987-.65106284.65106285-.7535201 1.29768598-1.14261898 1.5223331-.61726233-.61726232.7401163-1.74641137-.63012108-2.11356572-.54705778-.2194798-.13999104 2.1790845-.37776679 3.06647846-.6284542.362839-1.24484604 1.08103193-1.83089547 1.43143815-1.15314676.3089857.53178074-1.85235054.65577507-2.31510413.2469462-.42772277.80639178-1.4286415.80639178-2.01695313 0-.4272862-.31854774-.78710894-.703662-.79241913-.38910419-.1042617-.955294.60374476-.3989758.9249357.8436319.48707145 1.02465451-.81202212.74335745.23779162-.05590645.18239845-1.2072223.09862343-1.23621269.0896329-.11668918-.03299884-.35175824 1.96048045-1.09741492 2.16028055-1.1392826.30527095.8832506-3.57188819 1.21987732-4.18137176.74896926-1.29724942 1.5700216-2.82870272-.50177964-2.7528017-2.3492301.64867895-3.61749706 3.1761218-5.10614871 4.95215063.15289212-1.58225858 2.84147944-3.74587025.50177964-4.06280139-1.56924108 0-2.88328096 1.63523875-3.71295343 2.44532941-.50020008-.13402998.36167747-.89090234.49712826-1.21181282.59444995-1.02962867.72533668-1.84810133-.29817218-2.12234989-2.48238166-.87449024-6.29720496.51387904-8.31370565-.74569107-1.10938996 1.14981036 1.4276943 2.29081539 3.2463131 2.29081539v.00052916c1.762842 0 4.3248315-1.93913651 4.73046155-.42529653-.95927067 1.8689505-1.64602846 3.97816911-2.67528936 5.76088926-1.03852926-.27827023-1.72274704-.1906852-2.52542672-.1906852-.75556003-.20245124 1.51655196-2.15542546.20722167-2.15542546-1.52040959-.40738954-2.16851175 4.2235146-2.72903153 4.2235146-.70053993-1.21336858.85317805-3.05954374.85317805-4.14031373-.26160148-.4531016-.97048372-.56186651-.97048372-.05994664-.32263026 1.20404994-1.4436328 3.86804953-2.31510413 4.1015602-.4476803-1.0460011.48444943-2.27403287.75861067-3.15536259.1794801-.6698218-.20285074-.98503315-1.00459115-1.2645231-.455549 1.70013045-.659003 2.30115794-1.0929567 2.18487886.2382811-.88928045.62090564-1.86551885-1.40973173-1.86551885-1.73720652 0-3.14978781 4.18879067-3.89071903 3.7610097-.09190038-2.57295911 2.25696989-5.23171466 3.6204498-7.59333255-3.04382748-.81559134-2.06097184 2.47955062-4.07675286 4.49533163-2.78039509-1.62431146-3.09218008 2.85987063-4.761984 3.30729163-.92341964-1.59941946.85989582-2.15853696.85989582-3.55068713-.60532432-.16220016-.9592548-.18459185-1.2159456.25889744-1.62420828-1.87031046-3.19227461 2.30050178-4.57181474 3.16673173-1.19596163-1.19596957.77621605-1.78991152.41754689-3.1284915-2.27675014-1.31447909-2.64537028 1.32097725-2.99051659 1.9233991-.63936826-1.5575809 5.60765318-7.63617918 2.65203513-7.8403502-1.93385543 1.93386073-3.27777735 5.56572731-4.05246411 8.37416559-.3856355-1.3766403-1.6314605-4.1439782-1.85673469-4.9847076-.31699464-1.1830288.64286341-2.6241798 1.7611328-2.21847037 1.13336385.91039155.34725503 2.01770982-.29972265 3.13831019.6179132 3.2889798 2.363679-1.34544328 2.363679-2.12338442 0-1.64067858-1.40386857-2.59481105-3.00240168-2.21950224-2.59217315.69457093-2.62915132 4.44535449-1.23609892 5.83840424.72886357 1.26243026 1.60983875 2.74766878.61701626 3.91914058-.77275794.6394397-2.31735838.31975689-2.60397621-.54570312-.12491509-.96525026.02352145-1.69778096.57774416-2.65772103-1.52180924-.75031864-1.4133724 1.34877702-2.20865168 2.1440563-.79276045.79276045-2.60965947 1.4495383-2.60965947.26871613 2.12007183 0 3.67027879-3.56205627 1.3942298-3.56205627-1.95506444.0895006-2.77399747 4.94032375-3.89071904 3.64422262.22889368-1.36190036 1.07918513-2.22900608 1.09244076-3.29850481-1.01849766 0-1.47741744.96376594-1.87740658 1.6805169-.24015436.89626809-1.19273901 2.29025446-1.71565621 1.76733197.47663893-1.7788387 1.25571513-3.08208094.24701235-4.15840063-.59303443 1.0271707-1.46230444 4.09376557-2.54247911 4.38319327-.98544326-2.7549501 4.0736149-7.32513236 2.52180986-9.24491196-.79819764.79820028-1.54149159 2.23330555-2.10064612 3.22202435.1919896-2.83111307-2.39276993-3.5996271-4.65088017-3.53001522-.75270253.02320395-1.46879202.13930577-2.03398435.3033395-1.35699234.44925984-3.60493729 2.52586327-1.99832645 3.24166172.6275996-1.08703267 2.54224098-2.2276911 4.44216625-2.39226722-.6538489 2.17196191-2.42246147 4.2449432-2.36166551 6.52856986zm6.28592048-3.4581888c-.46526978 1.04905174-.65730965 1.79642028-1.0759043 2.78070995-.17187597-.64146111-.49931901-.99248117-1.42006635-1.23919984.8800015 0 1.82089158-.84888915 2.49597065-1.5415101zm63.64242176 3.5289516c0-.27469834-.10223235-.52377444.4729824-.67790482 1.07022898-.26611262 1.31521462-.28591403 1.79172126.53942191-.5117359.29544963-1.49811579.13848292-2.26470366.13848292zm-29.4657009-1.69039643c.66209333-.06518804.46060254.89332064.16122915 1.19269138-.57650856-.33284847-.6298803-.84134853-.30540854-1.1658203.05204354-.01394354.10003896-.02251604.1441794-.02687108zm-5.91540327.33744694c.21688689.01857375.43409657.17536583.63717222.52710026.25324064.94511018-1.66615532 3.36452894-2.2096862 2.42310705-.29674344-.51397164.63267695-3.03071473 1.57251398-2.95020731zm5.04568876.0015875c-.0015875.49479993.33399148 1.11688031.84749216 1.41335123-.28702.70278095-.96110953 2.22184116-1.82262725 1.72444302-.96701767-.96701768-.20744127-2.82032865.9751351-3.13779425zm-24.51891867.0878496c.56936216.56935951-.89804609 2.08537966-1.41386716 1.94716927-.30210654-.90695991.66182345-1.95074908 1.41386716-1.94716927zm14.61099528.0759751c.98740117.57008183-.98391397 3.55396531-1.52135415 2.62309766-.57278587-.57279116.63297593-2.62309766 1.52135415-2.62309766z"/>
</svg>
