<svg xmlns="http://www.w3.org/2000/svg" viewBox="0 0 96.236 11.61" height="43.881" width="363.725">
  <path d="M2.816 7.686c.15.266.08.479.628.479.225-.795 2.756-6.86 3.2-6.918 1.158.31 2.094 2.025 1.092 3.026-.822.822-1.859.66-2.734 1.165 0 .707 1.263.752 1.908 1.868.62 1.074-1.594 2.11-2.993 1.924C2.286 8.893.912 6.77.33 6.77c-1.35.362 1.741 3.588 3.852 3.49 1.636 0 2.98-.74 3.62-1.746 0 1.914 1.324 2.32 2.29.92.367 1.369 1.925 1.05 2.501.052.788 1.253 1.706.71 2.475.001 1.04 1.22 3.356.842 4.067-.16.564.151.299.607 1.371 1.227.346.345 3.202.801 4.094-.743.171.64.443.753.918.834.808-.808 1.679-4.077 2.468-4.077.475.822-.684 1.66-.684 2.722.102 1.484 1.766.973 2.473-.077.637 1.528 1.79 1.282 2.656.078.818 1.447 1.927.762 2.51-.095.88 1.811 1.994 1.392 2.91-.192 1.607 1.915 1.632 1.308 2.487.192 1.325 2.295 3.094-.225 3.619-1.345a3.09 3.09 0 0 0 .396-.086c0 1.774.352 3.926 2.335 1.65.071.278.089.74.294.907 1.521.489 2.518-1.39 3.186-2.212.803 0 2.127-.114 2.71.042 0 .998-1.629 2.213-.615 2.485 2.316.62 3.725-7.093 6.964-7.961.352.608-4.178 8.066-1.137 8.066 1.547 0-.192-1.163.977-3.187.977-1.694 2.339-3.937 4-4.897 2.321-1.34-.168 2.952-1.877 5.911-.455 1.698-.406 2.722.785 3.041.46-.123-.664-3.198 1.218-3.198.585.338-1.167 1.46.603 1.934 2.13.57 1.621-.57 2.708-1.198.196.729.542 1.754 1.55 1.172-1.162-2.011-.312-2.424.73-3.466.48-.48.696-.384 1.29.21-.093.579-.831 2.154-.365 2.62 1.086 1.087 1.638.71 2.197-.26.274 1.35 2.012 1.546 2.668 1.167.488-.282 1.305-.894 1.406-.815.206.159-.59 1.35.681 1.099 1.16 0 1.592-4.556 2.427-3.722.47.47-.944 1.253.383 1.608.8.215 1.049-2.245-.176-2.573a1.513 1.513 0 0 0-1.884.971c0-.657.803-1.175.254-1.175-1.37-.79-1.302.5-1.302 1.313 0 2.055-3.387 3.706-3.605 1.272.801 0 2.52-.122 2.986-.391.426-.426-.395-1.821-1.272-1.821-.91-.244-1.86.064-2.13.22-.693.4-.495.977-.495 1.353.124.465-.217 1.396-.817 1.611-.612.032-.403-.684-.32-1.062.318-1.518 1.763-4.373 1.904-4.65 1.265-.73 9.32-.609 10.033.103 1.303 1.304 1.458-1.947 3.447-2.48 1.714.46.888 2.31-.209 2.943-1.657.957-5.498 4.505-5.25 5.427 1.248 1.249 4.245.72 5.914-.244 0-1.807-3.638.457-4.562-.307 1.235-1.83 4.587-2.955 5.68-4.847.475-.823.71-1.768.464-2.68.734.196 1.618-.225 2.155-.423-1.409 2.93-3.34 5.896-3.5 9.014.368.35.74.591 1.016.12.363-1.445 2.272-7.087 2.833-7.145-.097.241.011.483.116.706 1.407.515 1.776-1.424 2.434-2.035 2.489-.683 1.907 1.135.515 2.527-.844.226-1.403-.104-1.403.94.227.847 2.159-.336 2.159 1.185 0 1.206-1.72 2.684-3.077 2.32-1.28-.343-.601-1.553-1.499-1.553-2.213 1.696 1.935 3.434 3.112 2.755 2.22-1.018 3.358-3.812 2.378-5.44.49-.876 1.063-1.67.799-2.658 0-1.58-2.83-2.108-4.29-.687-.77-1.715-3.479-1.06-4.177-.36-1.675-1.258-3.488-.417-4.896 2.023-.857-.23-6.647-.842-9.546-.327.625-1.221.74-1.825-.244-2.393-.603-.349-.282 1.313-1.316 2.346-1.193.32-3.434.128-4.071-.24-.269.155-.424.52-.424.812-.133.495 3.687-.041 4.005.51 0 1.187-.86 2.787-2.559 1.806-.65.651-.753 1.298-1.142 1.522-.618-.617.74-1.746-.63-2.113-.548-.22-.14 2.179-.378 3.066-.629.363-1.245 1.081-1.831 1.432-1.153.309.532-1.853.656-2.315.247-.428.806-1.429.806-2.017 0-.428-.318-.787-.704-.793-.389-.104-.955.604-.399.925.844.487 1.025-.812.744.238-.056.182-1.207.099-1.236.09-.117-.033-.352 1.96-1.098 2.16-1.14.305.883-3.572 1.22-4.181.749-1.298 1.57-2.83-.502-2.753-2.349.648-3.617 3.176-5.106 4.952.153-1.582 2.842-3.746.502-4.063-1.57 0-2.883 1.635-3.713 2.445-.5-.134.362-.89.497-1.211.595-1.03.725-1.848-.298-2.123-2.482-.874-6.297.514-8.314-.745-1.11 1.15 1.428 2.29 3.246 2.29 1.763 0 4.325-1.938 4.731-.424-.96 1.869-1.646 3.978-2.675 5.76-1.039-.278-1.723-.19-2.526-.19-.755-.203 1.517-2.156.207-2.156-1.52-.407-2.168 4.224-2.729 4.224-.7-1.213.854-3.06.854-4.14-.262-.453-.97-.562-.97-.06-.324 1.204-1.445 3.868-2.316 4.101-.448-1.046.484-2.274.759-3.155.18-.67-.203-.985-1.005-1.265-.456 1.7-.659 2.302-1.093 2.185.238-.889.621-1.865-1.41-1.865-1.737 0-3.15 4.189-3.89 3.76-.092-2.572 2.257-5.231 3.62-7.593-3.044-.815-2.06 2.48-4.077 4.496-2.78-1.625-3.092 2.86-4.762 3.307-.923-1.6.86-2.158.86-3.55-.605-.163-.959-.185-1.216.258-1.624-1.87-3.192 2.3-4.572 3.167-1.195-1.196.777-1.79.418-3.129-2.277-1.314-2.645 1.321-2.99 1.924-.64-1.558 5.607-7.636 2.652-7.84-1.934 1.933-3.278 5.565-4.053 8.374-.386-1.377-1.631-4.144-1.857-4.985-.317-1.183.643-2.624 1.761-2.218 1.134.91.348 2.017-.3 3.138.619 3.289 2.364-1.346 2.364-2.124 0-1.64-1.403-2.594-3.002-2.219-2.592.695-2.63 4.445-1.236 5.838.729 1.263 1.61 2.748.617 3.92-.773.639-2.317.32-2.604-.546-.125-.965.023-1.698.578-2.658-1.522-.75-1.414 1.349-2.209 2.144-.793.793-2.61 1.45-2.61.269 2.12 0 3.67-3.562 1.395-3.562-1.955.09-2.774 4.94-3.891 3.644.229-1.362 1.08-2.229 1.092-3.298-1.018 0-1.477.963-1.877 1.68-.24.896-1.193 2.29-1.716 1.767.477-1.778 1.256-3.082.247-4.158-.593 1.027-1.462 4.094-2.542 4.383C8.012 6.802 13.07 2.232 11.52.312c-.799.798-1.542 2.234-2.101 3.222.192-2.83-2.393-3.6-4.65-3.53a8.445 8.445 0 0 0-2.035.304C1.377.757-.87 2.833.736 3.549c.627-1.087 2.542-2.227 4.442-2.392-.654 2.172-2.422 4.245-2.362 6.529zm6.286-3.459c-.465 1.05-.657 1.797-1.076 2.781-.172-.641-.499-.992-1.42-1.239.88 0 1.821-.849 2.496-1.542zm63.643 3.53c0-.275-.103-.524.473-.678 1.07-.267 1.315-.286 1.791.539-.511.295-1.498.138-2.264.138zM43.279 6.065c.662-.065.46.893.161 1.193-.576-.333-.63-.842-.305-1.166a.908.908 0 0 1 .144-.027zm-5.915.337c.216.02.434.176.637.528.253.945-1.666 3.364-2.21 2.423-.297-.514.633-3.031 1.573-2.95zm5.045.002c-.001.495.334 1.117.848 1.414-.287.703-.961 2.222-1.823 1.724-.967-.967-.207-2.82.975-3.138zm-24.519.088c.57.57-.898 2.086-1.414 1.948-.302-.907.662-1.951 1.414-1.948zm14.611.076c.988.57-.984 3.554-1.521 2.623-.573-.572.633-2.623 1.521-2.623z"/>
</svg>
